<?xml version="1.0" encoding="UTF-8"?>
<svg id="Livello_1" xmlns="http://www.w3.org/2000/svg" version="1.1" viewBox="0 0 217 98.5" width="217" height="98.5">
  <!-- Generator: Adobe Illustrator 29.2.0, SVG Export Plug-In . SVG Version: 2.1.0 Build 108)  -->
  <defs>
    <style>
      .st0 {
        fill: #1e2b50;
      }
    </style>
  </defs>
  <g id="LogoUnifi2023-payoff-rid-negativo">
    <g id="Raggruppa_905">
      <path id="Tracciato_3803" class="st0" d="M99.3,85.9c1.4,0,2.7.4,3.6,1.4,1.6,2.4,1.6,5.5,0,7.9-1,.9-2.3,1.4-3.6,1.4h-3.7v-10.6h3.7ZM98.8,95.6c.7,0,1.3,0,2-.2.5,0,1-.4,1.4-.8s.6-.9.8-1.4c.3-1.3.3-2.7,0-4.1,0-.5-.4-1-.8-1.4s-.8-.6-1.4-.8c-.6-.2-1.3-.3-2-.2h-2.2v8.9h2.2Z"/>
      <path id="Tracciato_3804" class="st0" d="M105.8,90c0-.3.4-.6.6-.8.3-.2.6-.4,1-.5.4,0,.8-.2,1.2,0h1c.3,0,.6.2.9.4.3.2.5.4.7.7.2.4.3.8.3,1.3v4.1c0,.3,0,.5.4.6h.4v.8h-1.2c0,0-.2-.2-.3-.3,0,0,0-.3-.2-.4v-.5h0c-.2.2-.3.5-.5.7s-.4.3-.6.5c-.2,0-.5.2-.7.3-.3,0-.6,0-1,0s-.7,0-1,0c-.3,0-.6-.2-.8-.4s-.4-.4-.6-.7c0-.3-.2-.7-.2-1s0-.9.4-1.3c.2-.3.6-.6.9-.7.4-.2.9-.3,1.3-.3s1,0,1.5-.2h.5c0,0,.3,0,.4-.2,0,0,.2-.2.2-.3v-.5c0-.3,0-.5-.2-.8,0-.2-.2-.4-.4-.5-.2,0-.4-.2-.6-.2h-.8c-.5,0-1,0-1.5.4-.4.3-.6.8-.6,1.4h-.9c0-.4,0-.8.3-1.2h0v-.3ZM110.5,92.3c0,0-.2.2-.3.2s-.3,0-.4,0c-.4,0-.8,0-1.2.2-.4,0-.8,0-1.1.2-.3,0-.6.3-.9.5-.2.2-.4.5-.3.9,0,.2,0,.4,0,.6,0,.2.2.3.4.5.3.3.8.4,1.2.4s.7,0,1-.2c.3,0,.6-.3.9-.5.2-.2.4-.5.6-.8,0-.3.2-.7.2-1v-1.2h-.2Z"/>
      <path id="Tracciato_3805" class="st0" d="M122.8,96.5v-1.4h0c-.2.5-.6.9-1.1,1.2-.5.3-1,.4-1.6.4s-.8,0-1.2-.2c-.3,0-.6-.3-.8-.6-.2-.3-.4-.6-.5-.9,0-.4-.2-.8,0-1.2v-5h.9v5c0,.6,0,1.1.5,1.6.4.4,1,.6,1.6.5.4,0,.7,0,1-.3.3-.2.5-.4.7-.7.2-.3.3-.6.4-1,0-.4,0-.8,0-1.1v-4h.9v7.7h-.9,0Z"/>
      <path id="Tracciato_3806" class="st0" d="M126.4,88.8v1.3h0c.2-.5.5-.9,1-1.1.5-.3,1-.4,1.5-.4s.9,0,1.3.2c.3,0,.6.3.9.6.2.3.4.6.5.9,0,.4.1.8.1,1.2v4.9h-.9v-5.7c0-.3-.2-.5-.3-.7-.2-.2-.4-.4-.6-.5-.3,0-.6-.2-.9-.2s-.7,0-1,.2c-.3,0-.5.3-.7.6-.2.2-.4.5-.5.8s-.2.7-.2,1v4.5h-.9v-7.7h1-.3Z"/>
      <path id="Tracciato_3807" class="st0" d="M142,90.3c-.1-.2-.3-.4-.4-.5l-.6-.3h-1.4c-.2,0-.4,0-.6.2-.2,0-.3.2-.4.4-.1.2-.2.4-.2.6s0,.4.2.5c.1,0,.2.3.4.4s.3.2.5.2.3,0,.5.2l1.2.3c.3,0,.5,0,.8.2.3,0,.5.2.7.4.2.2.4.4.5.6.1.3.2.6.2.9s0,.7-.3,1.1c-.2.3-.4.5-.7.7s-.6.3-1,.4c-.4,0-.7,0-1.1,0-.8,0-1.6-.2-2.2-.6-.6-.5-1-1.3-1-2.1h.9c0,.6.3,1.1.7,1.4.5.3,1,.5,1.6.5h.7c.2,0,.5,0,.7-.3.2,0,.4-.3.5-.5s.2-.4.2-.7,0-.4-.1-.6c0-.2-.2-.3-.4-.4s-.4-.2-.5-.3c-.2,0-.4,0-.6-.2l-1.2-.3c-.3,0-.6-.2-.8-.3-.2,0-.5-.2-.7-.4-.2-.2-.4-.3-.5-.6-.1-.3-.2-.5-.2-.8s0-.7.3-1c.2-.3.4-.5.7-.7s.6-.3.9-.4c.3,0,.7,0,1,0s.7,0,1.1,0c.3,0,.6.2.9.5.3.2.5.5.6.8.2.3.2.7.3,1.1h-.9c0-.3,0-.5-.2-.7h0v.2Z"/>
      <path id="Tracciato_3808" class="st0" d="M145.4,94c0,.4.2.7.5,1,.2.3.5.5.8.7.4.2.7.3,1.1.3.6,0,1.2-.2,1.6-.5.4-.4.7-.9.8-1.4h.9c-.1.8-.5,1.5-1.1,2s-1.4.8-2.2.7c-.5,0-1.1,0-1.6-.3-.4-.2-.8-.5-1.1-.9s-.5-.8-.6-1.3-.2-1-.2-1.6,0-1,.2-1.5c.1-.5.3-.9.6-1.3s.7-.7,1.1-.9c.5-.2,1-.4,1.6-.3,1.1,0,2.1.5,2.6,1.3.3.4.5.9.6,1.4s.2,1.1.1,1.6h-5.9c0,.4,0,.7.1,1h0ZM150,91.1c-.1-.3-.3-.6-.5-.9s-.5-.5-.8-.6c-.3-.2-.7-.2-1-.2s-.7,0-1,.2c-.3,0-.5.4-.8.6-.2.3-.4.6-.5.9s-.2.7-.2,1h5c0-.3,0-.7-.2-1h0Z"/>
      <path id="Tracciato_3809" class="st0" d="M157.1,89.9c-.4-.3-.9-.5-1.5-.5s-.8,0-1.2.3c-.3.2-.6.4-.8.7-.2.3-.4.7-.5,1-.2.8-.2,1.6,0,2.4.1.4.3.7.5,1s.5.6.8.7c.4.2.8.3,1.2.3s.6,0,.8-.2c.3,0,.5-.3.7-.5.4-.4.7-1,.7-1.6h.9c0,.8-.4,1.6-1,2.2-.6.5-1.3.8-2.1.8s-1.1,0-1.5-.3c-.4-.2-.8-.5-1.1-.9s-.6-.8-.7-1.3c-.3-1-.3-2.1,0-3.1.1-.5.4-.9.7-1.3s.7-.7,1.1-.9c.5-.2,1-.3,1.5-.3.8,0,1.5.2,2.1.7s1,1.2,1,2h-.9c0-.5-.3-1-.7-1.4h0v.2Z"/>
      <path id="Tracciato_3810" class="st0" d="M164.9,88.9c.4.2.8.5,1.1.9s.6.8.7,1.3c.3,1,.3,2.1,0,3.1-.1.5-.4.9-.7,1.3s-.7.7-1.1.9c-1,.4-2.1.4-3.1,0-.4-.2-.8-.5-1.1-.9s-.6-.8-.7-1.3c-.3-1-.3-2.1,0-3.1.1-.5.4-.9.7-1.3s.7-.7,1.1-.9c1-.4,2.1-.4,3.1,0h0ZM162.2,89.7c-.3.2-.6.4-.8.7-.2.3-.4.7-.5,1-.2.8-.2,1.6,0,2.4.1.4.3.7.5,1s.5.6.8.7c.4.2.8.3,1.2.3s.8,0,1.2-.3c.3-.2.6-.4.8-.7.2-.3.4-.7.5-1,.2-.8.2-1.6,0-2.4-.1-.4-.3-.7-.5-1s-.5-.6-.8-.7c-.7-.4-1.6-.4-2.4,0Z"/>
      <path id="Tracciato_3811" class="st0" d="M169.3,85.9v10.6h-.9v-10.6h.9Z"/>
      <path id="Tracciato_3812" class="st0" d="M175.9,88.9c.4.2.8.5,1.1.9s.6.8.7,1.3c.3,1,.3,2.1,0,3.1-.1.5-.4.9-.7,1.3s-.7.7-1.1.9c-1,.4-2.1.4-3.1,0-.4-.2-.8-.5-1.1-.9s-.6-.8-.7-1.3c-.3-1-.3-2.1,0-3.1.1-.5.4-.9.7-1.3s.7-.7,1.1-.9c1-.4,2.1-.4,3.1,0h0ZM173.2,89.7c-.3.2-.6.4-.8.7-.2.3-.4.7-.5,1-.2.8-.2,1.6,0,2.4.1.4.3.7.5,1s.5.6.8.7c.4.2.8.3,1.2.3s.8,0,1.2-.3c.3-.2.6-.4.8-.7.2-.3.4-.7.5-1,.2-.8.2-1.6,0-2.4-.1-.4-.3-.7-.5-1s-.5-.6-.8-.7c-.7-.4-1.6-.4-2.4,0Z"/>
      <path id="Tracciato_3813" class="st0" d="M181.2,96.5v.6c0,.2-.1.4-.2.6-.1.2-.2.3-.4.5l-.6.3v-.6c.1,0,.2,0,.3-.2,0,0,.2-.2.2-.4s.1-.3.1-.4v-.4h-.6v-1.6h1.2v1.6h0Z"/>
      <path id="Tracciato_3814" class="st0" d="M192.5,88.9c.4.2.8.5,1.1.9s.6.8.7,1.3c.3,1,.3,2.1,0,3.1-.1.5-.4.9-.7,1.3s-.7.7-1.1.9c-1,.4-2.1.4-3.1,0-.4-.2-.8-.5-1.1-.9s-.6-.8-.7-1.3c-.3-1-.3-2.1,0-3.1.1-.5.4-.9.7-1.3s.7-.7,1.1-.9c1-.4,2.1-.4,3.1,0h0ZM189.7,89.7c-.3.2-.6.4-.8.7-.2.3-.4.7-.5,1-.2.8-.2,1.6,0,2.4.1.4.3.7.5,1s.5.6.8.7c.4.2.8.3,1.2.3s.8,0,1.2-.3c.3-.2.6-.4.8-.7.2-.3.4-.7.5-1,.2-.8.2-1.6,0-2.4-.1-.4-.3-.7-.5-1s-.5-.6-.8-.7c-.7-.4-1.6-.4-2.4,0Z"/>
      <path id="Tracciato_3815" class="st0" d="M196.9,85.9v10.6h-.9v-10.6h.9Z"/>
      <path id="Tracciato_3816" class="st0" d="M201.7,88.8v.8h-1.6v5.2c0,.2,0,.5.1.7,0,.2.3.3.6.3h.8v.8h-.8c-.5,0-.9,0-1.3-.4-.3-.4-.4-.9-.4-1.3v-5.2h-1.3v-.8h1.3v-2.3h.9v2.3h1.7Z"/>
      <path id="Tracciato_3817" class="st0" d="M203.9,88.8v1.8h0c.2-.6.6-1.1,1.1-1.4s1.2-.5,1.8-.5v.9c-.4,0-.8,0-1.2.2-.3,0-.6.3-.9.6-.3.3-.5.6-.6.9-.1.4-.2.7-.2,1.1v4.1h-.9v-7.7h.9,0Z"/>
      <path id="Tracciato_3818" class="st0" d="M208.2,94c0,.4.2.7.5,1,.2.3.5.5.8.7.4.2.7.3,1.1.3.6,0,1.2-.2,1.6-.5.4-.4.7-.9.8-1.4h.9c-.1.8-.5,1.5-1.1,2s-1.4.8-2.2.7c-.5,0-1.1,0-1.6-.3-.4-.2-.8-.5-1.1-.9s-.5-.8-.6-1.3-.2-1-.2-1.6,0-1,.2-1.5c.1-.5.3-.9.6-1.3s.7-.7,1.1-.9c.5-.2,1-.4,1.6-.3,1.1,0,2.1.5,2.6,1.3.3.4.5.9.6,1.4s.2,1.1.1,1.6h-5.9c0,.4,0,.7.1,1h0ZM212.8,91.1c-.1-.3-.3-.6-.5-.9s-.5-.5-.8-.6c-.3-.2-.7-.2-1-.2s-.7,0-1,.2c-.3,0-.5.4-.8.6-.2.3-.4.6-.5.9s-.2.7-.2,1h5c0-.3,0-.7-.2-1h0Z"/>
      <path id="Tracciato_3819" class="st0" d="M215.7,94.9h1.2v1.6h-1.2v-1.6Z"/>
    </g>
    <g id="Raggruppa_912">
      <rect id="Rettangolo_79" class="st0" x="85.5" width=".5" height="85.9"/>
      <g id="Raggruppa_909">
        <g id="Raggruppa_906">
          <path id="Tracciato_3820" class="st0" d="M96.2,12.4h3.7c.5,0,.4,0,.4.2s-.3.2-.4.2c-1.1.2-1.1.8-1.1,1.9v5.5c0,1.4.3,2.7,1.1,3.8.9.8,2,1.3,3.2,1.2,2.8,0,4.2-1.6,4.2-6v-1.8c0-3.8,0-4.2-.7-4.4-.2,0-.4,0-.6-.1-.2,0-.4-.1-.4-.2s.2-.2.4-.2h3.2c.6,0,.5,0,.5.1s0,.2-.5.3c-.9.2-1.1.6-1.1,1.5,0,1.4,0,2.8,0,4.2,0,3-.3,4.8-1.6,6.1-1,1-2.3,1.5-3.7,1.5s-2.5-.3-3.5-.9c-1.4-1-1.9-2.4-1.9-5.4v-5.5c0-1-.2-1.2-1-1.4,0,0-.6-.1-.6-.3s.4-.2.6-.2h0Z"/>
          <path id="Tracciato_3821" class="st0" d="M111.5,12.3c.5,0,1.4.1,2.5.1s.3.2.5.5c1.4,1.8,6.6,7.8,8.6,10h0v-8.4c0-1.2-.4-1.4-1.4-1.6-.3,0-.4-.1-.4-.3s.3-.2.5-.2h3.3c.5,0,.4,0,.4.2s-.2.2-.5.3c-.6,0-1.1.6-1.1,1.2,0,.9,0,5.3,0,7.3v3.9c0,.4,0,.7-.2.7s-.4-.3-.7-.7-6.2-7.5-9.2-10.9h-.2v8.6c0,1.8.2,2.1,1.4,2.4.3,0,.5.2.5.3s0,.2-.5.2-1.1-.1-1.8-.1-1.3.1-1.5.1-.5,0-.5-.2.3-.2.5-.2c1-.2,1.2-.6,1.3-1.9,0-1,.2-7.3.2-8.7s0-1.4-.3-1.6c-.3-.2-.7-.4-1.1-.4s-.5-.1-.5-.2.2-.2.4-.2h0l-.2-.2Z"/>
          <path id="Tracciato_3822" class="st0" d="M127.8,12.4h3.9q.4,0,.4.2c0,.2-.2.2-.5.3-.8.1-1,.4-1,1.1v10.2c0,.7.2,1,1.2,1.1.3,0,.4.1.4.3s-.3.2-.5.2h-2c-.6,0-1.3.1-1.8.1s-.4,0-.4-.2.2-.2.5-.3c.8-.1,1.1-.5,1.1-1.6v-10c0-.6-.5-.7-1.1-.8-.2,0-.4-.1-.4-.2s.3-.2.4-.2h0l-.2-.2Z"/>
          <path id="Tracciato_3823" class="st0" d="M133.6,12.4h3.6q.5,0,.5.2c0,.2-.2.2-.4.2-.7.1-.7.3-.7.7s.2.7.4,1c.4,1.2,3,7.5,3.6,8.8,0,.1.1.1.2,0,.4-.7,3.1-7.2,3.5-8.2.3-.6.5-1.2.6-1.8,0-.4-.4-.5-1.1-.6-.2,0-.4-.1-.4-.2s.2-.2.5-.2h3.2q.4,0,.4.1c0,.1,0,.2-.4.3-.7.1-1.2.5-2,1.9-.4.9-1.8,4-3.9,8.8-.4,1-.7,1.7-.8,2.1,0,.2-.2.4-.3.4s-.2-.1-.3-.4c-.8-2.2-4.1-10.5-4.8-11.8-.2-.6-.7-1-1.3-1.1-.3,0-.5-.1-.5-.3s.3-.1.5-.1h0v.2Z"/>
          <path id="Tracciato_3824" class="st0" d="M150.7,12.5h6.4c.2,0,.2.2.2.3,0,.2.1,1.2.2,1.6,0,.2,0,.4-.1.4s-.2-.1-.3-.3c-.4-1-.8-1.3-1.1-1.4-1.4-.1-2.8-.2-4.2,0-.1,0-.2,0-.2.3v5c0,.1,0,.2.2.2h2.4c.6,0,1.2,0,1.8-.2.1,0,.3-.3.5-.8,0-.2.1-.3.3-.3s.1.1.1.4-.1,1-.1,1.3v1.3c0,.2,0,.4-.1.4s-.2-.1-.3-.5-.3-.8-.6-.8c-1.3-.2-2.7-.2-4-.1,0,0-.2,0-.2.3v4.6c0,.8,0,1.2.6,1.2h2.3c2.1,0,2.3-.1,2.6-.4.4-.4.7-.8,1-1.3.1-.2.2-.4.3-.4s.1.2,0,.6c0,.2-.4,1.4-.5,1.7,0,.2-.2.3-.4.3h-8.7c-.3,0-.6,0-.6-.2s.2-.2.4-.2c.8-.1,1.1-.4,1.2-1.2v-9.8c0-1.1-.3-1.4-1.1-1.5-.3,0-.4-.1-.4-.2s.2-.2.3-.2h2.1Z"/>
          <path id="Tracciato_3825" class="st0" d="M163.6,22.3c0,.7,0,1.4.1,2.1,0,.4.4.7,1,.8.2,0,.4.1.4.2s-.3.2-.5.2h-3.7c-.4,0-.5,0-.5-.2s.2-.2.5-.3c.8-.1,1-.4,1.1-1.1v-10.3c0-.6-.2-.9-1.1-1.1-.2,0-.4-.1-.4-.2s.3-.2.4-.2h1.6c.8,0,2-.1,2.9-.1s2.2.2,3.1.8c.8.5,1.4,1.4,1.4,2.4,0,1.5-1.1,2.8-2.6,3.2-.2,0-.2.1,0,.4.8,1.3,1.6,2.5,2.5,3.7.5.6,1,1.2,1.6,1.8.5.5,1.1.8,1.8.8s.2.2,0,.3c-.3.1-.7.2-1.1.2-1.2,0-2.4-.6-3.1-1.6-1.1-1.4-2.2-2.8-3.2-4.3-.3-.2-.6-.4-.9-.5h-1c-.1,0-.2.2-.2.4v2.6h0ZM163.8,13s-.1.2-.2.6v4.9q0,.4.2.4h1.2c.7,0,1.4-.2,2-.5.8-.5,1.3-1.4,1.2-2.3,0-.8-.3-1.5-.8-2.1-.7-.7-1.6-1.1-2.6-1.1s-.7,0-1.1.2h.1Z"/>
          <path id="Tracciato_3826" class="st0" d="M174.9,23.1c.2.7.5,1.3,1.1,1.8s1.4.7,2.1.7c1.4.1,2.6-.9,2.8-2.3v-.3c0-1.5-.8-2.3-2.7-3.4-1.6-1-3.1-2.1-3.1-4s.5-2.1,1.4-2.7c.8-.6,1.8-.9,2.9-.8.8,0,1.6.2,2.3.4.1,0,.2.1.3.3,0,.5,0,1.1.2,1.6v.5s-.2-.1-.3-.4c-.2-.5-.5-1-.9-1.4-.5-.4-1.2-.6-1.8-.6-1.3,0-2.4.9-2.4,2.2v.3c0,1,.6,1.9,1.4,2.4.8.5,1.6,1,2.4,1.5,1.3.6,2.1,1.9,2.2,3.3-.1,2.3-2.1,4-4.4,3.9h0c-1,0-2.1-.2-3-.6-.3,0-.3-.4-.4-.8,0-.4-.1-.8-.2-1.5,0-.3,0-.5.1-.5s.3.2.4.5h-.4Z"/>
          <path id="Tracciato_3827" class="st0" d="M185.2,12.4h3.9q.4,0,.4.2c0,.2-.2.2-.5.3-.8.1-1,.4-1,1.1v10.2c0,.7.2,1,1.2,1.1.3,0,.4.1.4.3s-.3.2-.5.2h-2c-.6,0-1.3.1-1.8.1s-.4,0-.4-.2.2-.2.5-.3c.8-.1,1.1-.5,1.1-1.6v-10c0-.6-.5-.7-1.1-.8-.2,0-.4-.1-.4-.2s.3-.2.4-.2h0l-.2-.2Z"/>
          <path id="Tracciato_3828" class="st0" d="M191.7,12.1s.1,0,.3.1.5.2.7.2h8.7c.6,0,1.2,0,1.8-.2.1,0,.3-.2.3-.1v.3c-.1.7-.2,1.4-.1,2.1,0,.3,0,.5-.2.5s-.2-.2-.2-.3c0-.4-.2-.9-.4-1.3-.2-.2-.2-.3-.9-.3h-3.3c-.1,0-.2.3-.2.4v10.8c0,.6.4.8,1.1,1,.3,0,.5.2.5.3s-.3.2-.5.2c-.7,0-1.2-.1-2-.1s-1.7.1-2,.1-.5,0-.5-.2.2-.2.5-.3c1-.1,1.2-.4,1.2-1.5,0-2.1.1-10.1.1-10.4s0-.3-.1-.4h-3.7c-.4,0-.8.3-1,1.5,0,.3-.1.4-.2.4s-.2-.2-.2-.4c0-.4.2-1.4.2-2.1v-.3h0Z"/>
          <path id="Tracciato_3829" class="st0" d="M210.3,12.1s.3,1,.6,1.8c1.4,3.6,2.4,5.9,4,9.9.4,1,.8,1.4,1.7,1.5.3,0,.4.2.4.3s-.2.2-.4.2c-.6,0-1.1-.1-2.2-.1s-1.4.1-1.8.1-.5,0-.5-.2.3-.2.5-.3c.7-.1,1.1-.4.8-1-.2-.5-.8-2-1.6-3.9,0-.1-.2-.2-.3-.3h-4.2s-.2,0-.3.3c-.3.8-.9,2.1-1.2,3-.3.8-.3,1.2,0,1.5.1.3.4.3.9.4.2,0,.4.1.4.2s-.2.2-.4.2c-.4,0-1.2-.1-2-.1h-1.5c-.5,0-.4,0-.4-.2s.3-.2.5-.3c1.1-.2,1.4-.8,2-2.1.6-1.2,2.6-5.9,3.9-9.1,0-.2.1-.4.1-.6v-.3c.3-.3.5-.6.7-1,0-.2.1-.3.2-.3s.1,0,.2.2h0v.2ZM208.4,8.2c.3.2,1.4,2.3,1.7,2.9v.3c-.1,0-.2,0-.3-.2-.9-.8-1.8-1.8-2.5-2.6-.2-.2-.2-.3-.2-.3,0,0,.1-.1.3-.1.3,0,.7,0,1,.2v-.2ZM211.4,19.3c-1-2.5-1.6-4-1.9-4.7,0-.2-.1-.2-.2,0-.7,1.5-1.6,3.8-1.9,4.8h0c.4.1,1,.1,1.9.1h1.9c.1,0,.1-.1.1-.2h0Z"/>
        </g>
        <g id="Raggruppa_907">
          <path id="Tracciato_3830" class="st0" d="M96.3,46.5c-.2,0-.5,0-.5-.2s.2-.2.5-.2c.8,0,1-.3,1-1v-9.6c0-.7-.2-1.1-1-1.2-.3,0-.4,0-.4-.2s.2-.2.4-.2h1.6c1,0,2-.2,3.1-.2,1.6,0,3.3.3,4.7,1,2,1.1,3.2,3.1,3.2,5.4,0,3.9-2.9,5.7-5.6,6.4-.7,0-1.3.2-2,.2h-1.5c-.7,0-1.3,0-1.9,0h-1.6ZM99.2,34.4c-.2,0-.3.3-.3.5,0,.9,0,1.4,0,4.9s0,3.1,0,4.2c0,1.3.2,1.5.6,1.7.6.3,1.4.5,2.1.5s1.7,0,2.4-.5c2-1,3.2-3.1,3-5.4,0-1.8-.6-3.5-1.9-4.7-1.3-1.1-2.9-1.6-4.6-1.6s-1,0-1.5.2h0l.2.2Z"/>
          <path id="Tracciato_3831" class="st0" d="M113.3,34h6.1c0,0,.2.2.2.3,0,.2,0,1.2.2,1.5,0,.2,0,.4,0,.4s-.2,0-.2-.3c-.4-.9-.8-1.2-1.1-1.3-1.3,0-2.6-.2-4,0,0,0-.2,0-.2.3v4.8c0,0,0,.2.2.2h2.3c.6,0,1.2,0,1.7-.2.2-.2.4-.5.5-.8,0-.2,0-.3.2-.3s0,0,0,.4,0,.9,0,1.2v1.2c0,.2,0,.4,0,.4s-.2,0-.3-.5-.3-.8-.6-.8c-1.3-.2-2.6-.2-3.8,0,0,0-.2,0-.2.3v4.3c0,.8,0,1.1.5,1.2h2.2c2,0,2.1,0,2.5-.3.4-.4.7-.8.9-1.3,0-.2.2-.3.3-.3s0,.2,0,.6c0,.2-.4,1.3-.5,1.6,0,.2-.2.3-.4.3h-6.4c-2,0-1.6,0-1.9,0s-.5,0-.5-.2.2-.2.4-.2c.7,0,1-.3,1.1-1.2v-9.3c0-1.1-.3-1.3-1-1.5-.2,0-.4,0-.4-.2s.2-.2.3-.2h2.1Z"/>
          <path id="Tracciato_3832" class="st0" d="M125.1,45.1c-1.4-1.2-2.2-2.9-2.2-4.8s1-4.2,2.8-5.4c1.4-1,3.1-1.5,4.9-1.4.9,0,1.8,0,2.6.4.5,0,.9.3,1.4.5.2,0,.3.3.3.5s.2,1.1.2,1.4v.6c-.2,0-.2-.2-.3-.4-.2-.6-.6-1.1-1.1-1.5-.9-.7-2-1.1-3.2-1-1.4,0-2.8.6-3.9,1.6-1.2,1.2-1.9,2.9-1.9,4.6s.8,3.9,2.4,5.1c.9.7,2.1,1.1,3.2,1.2,1,0,2-.2,2.8-.8.2-.3.3-.7.3-1.1v-2.3c0-.7-.4-.9-1.3-1-.3,0-.4,0-.4-.2s.2-.2.6-.2h3.3q.5,0,.5.2c0,.2-.3.2-.5.2-.6.2-.8.4-.8,1.3s.1,2.3.1,2.6,0,.5-.2.6c-.2,0-.6.3-1.2.4-1.1.4-2.2.6-3.3.7-1.9,0-3.8-.5-5.3-1.7h.2Z"/>
          <path id="Tracciato_3833" class="st0" d="M138.5,33.9h3.4q.5,0,.5.2c0,.2-.2.2-.5.2-.8.2-.9.2-.9,2.2v7.4c0,.6,0,1.1.2,1.6.2.3.6.4,2.4.4s1.4,0,2,0c.4,0,.8-.4,1.5-1.5.1-.2.2-.3.3-.3s.2.2,0,.7-.4,1-.7,1.5c0,0-.2.2-.4.2h-8c-.3,0-.4,0-.4,0s.2-.2.3-.2c1-.2,1.1-.5,1.2-1.1v-9.4c0-.9-.2-1.3-1.1-1.4-.3,0-.4,0-.4-.2s.2-.2.5-.2h0Z"/>
          <path id="Tracciato_3834" class="st0" d="M149.6,33.9h3.7q.4,0,.4.2c0,.2-.2.2-.5.2-.7,0-.9.4-.9,1v9.7c0,.7.2.9,1.1,1.1.2,0,.4,0,.4.2s-.2.2-.5.2h-1.9c-.6,0-1.2,0-1.7,0s-.4,0-.4-.2.2-.2.5-.2c.8,0,1-.5,1.1-1.6v-9.5c0-.6-.5-.7-1.1-.8-.2,0-.4,0-.4-.2s.2-.2.4-.2h-.2Z"/>
          <path id="Tracciato_3835" class="st0" d="M160.2,44.1c.2.6.5,1.2,1,1.7.6.4,1.3.7,2,.7,1.3,0,2.5-.9,2.6-2.2v-.3c0-1.4-.8-2.2-2.6-3.3-1.5-.9-2.9-2-2.9-3.8s.5-2,1.3-2.6c.8-.5,1.8-.8,2.7-.8s1.5.2,2.2.4c.1,0,.2,0,.3.3,0,.5,0,1,.2,1.5v.5s-.2,0-.3-.4c-.2-.5-.5-1-.9-1.3-.5-.4-1.1-.6-1.7-.6-1.2,0-2.2.9-2.3,2.1v.3c0,.9.6,1.8,1.3,2.3.8.5,1.5,1,2.3,1.4,1.2.6,2,1.8,2.1,3.2-.1,2.2-2,3.8-4.2,3.7h0c-1,0-1.9-.2-2.8-.6-.3,0-.3-.4-.4-.8,0-.3-.1-.8-.2-1.5,0-.2,0-.5.1-.5s.2.2.3.5h-.1Z"/>
          <path id="Tracciato_3836" class="st0" d="M169.3,33.6s.1,0,.2,0c.2,0,.4.2.7.2h8.3c.6,0,1.1,0,1.7-.2.1,0,.3-.2.3,0v.2c-.1.6-.2,1.3-.1,2,0,.3,0,.5-.2.5s-.2-.2-.2-.3c0-.4-.2-.8-.4-1.2-.2-.2-.2-.3-.9-.3h-3.1c-.1,0-.2.2-.2.3v10.3c0,.6.4.8,1.1.9.3,0,.5.2.5.3s-.3.2-.5.2c-.6,0-1.1,0-1.9,0s-1.6,0-1.9,0-.5,0-.5-.2.2-.2.5-.2c1,0,1.1-.4,1.2-1.4,0-2,.1-9.6.1-9.9s0-.3-.1-.3h-3.5c-.4,0-.7.3-.9,1.4,0,.2-.1.4-.2.4s-.2-.2-.2-.4c0-.4.2-1.3.2-2v-.3h0Z"/>
          <path id="Tracciato_3837" class="st0" d="M182.8,33.9h3.5c.5,0,.4,0,.4.2s-.3.2-.4.2c-1,.2-1,.8-1,1.8v5.2c-.1,1.3.2,2.6,1.1,3.6.8.8,1.9,1.2,3,1.2,2.7,0,4-1.5,4-5.7v-1.7c0-3.7-.1-4-.7-4.2-.2,0-.4,0-.6,0-.2,0-.4,0-.4-.2s.2-.2.4-.2h3q.5,0,.5,0c0,0-.1.2-.5.2-.8.2-1,.6-1.1,1.4,0,1.3-.1,2.6-.1,4,0,2.9-.3,4.6-1.6,5.8-.9.9-2.2,1.4-3.5,1.4s-2.4-.2-3.4-.9c-1.3-1-1.8-2.3-1.8-5.1v-5.3c0-.9-.2-1.1-.9-1.3-.1,0-.5,0-.5-.2,0-.2.3-.2.6-.2h0Z"/>
          <path id="Tracciato_3838" class="st0" d="M197.6,46.5c-.2,0-.5,0-.5-.2s.2-.2.5-.2c.8,0,1-.3,1-1v-9.6c0-.7-.2-1.1-1-1.2-.3,0-.4,0-.4-.2s.2-.2.4-.2h1.6c1,0,2-.2,3.1-.2,1.6,0,3.3.3,4.7,1,2,1.1,3.2,3.1,3.2,5.4,0,3.9-2.9,5.7-5.6,6.4-.7,0-1.3.2-2,.2h-1.5c-.7,0-1.3,0-1.9,0h-1.6ZM200.5,34.4c-.2,0-.3.3-.3.5,0,.9-.1,1.4-.1,4.9s0,3.1.1,4.2c0,1.3.2,1.5.6,1.7.6.3,1.4.5,2.1.5s1.7,0,2.4-.5c2-1,3.2-3.1,3-5.4.1-1.8-.6-3.5-1.9-4.7-1.3-1.1-2.9-1.6-4.6-1.6s-1,0-1.5.2h0l.2.2Z"/>
          <path id="Tracciato_3839" class="st0" d="M212.9,33.9h3.7q.4,0,.4.2c0,.2-.2.2-.5.2-.7,0-.9.4-.9,1v9.7c0,.7.2.9,1.1,1.1.2,0,.4,0,.4.2s-.2.2-.5.2h-1.9c-.6,0-1.2,0-1.7,0s-.4,0-.4-.2.2-.2.5-.2c.8,0,1-.5,1.1-1.6v-9.5c0-.6-.5-.7-1.1-.8-.2,0-.4,0-.4-.2s.2-.2.4-.2h-.2Z"/>
        </g>
        <g id="Raggruppa_908">
          <path id="Tracciato_3840" class="st0" d="M108.7,57.4c0,.2.3.7.5.7s0-.3,0-.6c0-.6-.2-2.3-.2-2.7s-.3-.3-.8-.3h-8.2c-1.9,0-1.2,0-1.8,0h-1.8c-.6,0-.4,0-.4.2s0,.2.4.3c1.1.2,1.7.5,1.7,1.7v7c0,3.3,0,6.4,0,7.8,0,1.3-.6,1.5-1.6,1.7-.6,0-.6.2-.6.3s.3.2.6.2h2.7c.7,0,1,0,1.5,0s1,0,1.4,0,.6,0,.6-.2c0,0,0,0-.4-.2h0c-1.2-.2-1.8-.4-1.8-1.8v-6.3c0-1.1,0-.5.4-.5,4.5,0,5.2,0,5.7.2.6.3.9.8,1,1.4.2.5.3.5.3.5,0,0,.2,0,.2-.5v-3.9c0-.3,0-.4,0-.4s0,0-.3.5c-.4.9-.7,1.3-1.4,1.4h-5.4c-.2,0-.4-.2-.4-.4h0c0-1.3,0-7.2,0-7.6s0-.7.4-.7h5.5c1.3,0,1.7.7,2.3,2.1h.1Z"/>
          <path id="Tracciato_3841" class="st0" d="M112.7,73.6h5.6c.6,0,.7,0,.7-.2s-.2-.2-.5-.3c-1.4-.3-1.7-.6-1.8-1.7v-7.8c0-1.9,0-5.4,0-7,0-1.1.4-1.5,1.5-1.7.6,0,.6-.2.6-.3s-.3-.2-.5-.2h-5.6q-.5,0-.5.2c0,.2.2.2.5.3.9.2,1.6.4,1.7,1.3v14.4c0,1.7-.5,2.3-1.7,2.4-.6,0-.6.2-.6.3s.2.2.6.2h0Z"/>
          <path id="Tracciato_3842" class="st0" d="M130,65.1c.2.3.5.7.9,1.3,1.1,1.7,2.4,3.4,3.7,5,1.4,1.5,2.4,2.3,4.4,2.3s1,0,1.5-.2c.2,0,.2-.2.2-.2h-.2c-1,0-1.9-.5-2.6-1.2l-.2-.2c-.8-.7-1.5-1.5-2.1-2.4-1.3-1.7-2.5-3.5-3.6-5.3-.1-.2-.1-.4-.1-.5,0,0,.1-.2.2-.2,2.1-.4,3.7-2.3,3.7-4.5s-.7-2.7-1.9-3.5c-1.3-.8-2.9-1.2-4.4-1.1h-6.6c-.3,0-.5,0-.5.2s.2.2.5.3c1.3.2,1.6.7,1.7,1.6v6.6c0,4.2,0,6.5,0,8.2,0,1.1-.4,1.5-1.6,1.7s-.6.2-.6.3,0,.2.6.2h5.5c.3,0,.7,0,.7-.2s-.3-.2-.6-.3c-1-.2-1.5-.6-1.5-1.2,0-1-.2-2.1-.2-3.1v-3.8c0-.3,0-.7.4-.7h1.5c.5,0,1,.3,1.4.7h0v.2ZM127.2,63.9h0c-.3,0-.4-.2-.4-.7s0-6.5,0-7,0-.8.3-.9c.5-.2,1.1-.3,1.6-.3,1.4,0,2.8.5,3.8,1.6.7.9,1.1,2,1.1,3.1s-.7,2.7-1.8,3.4c-.9.5-1.9.8-2.9.8h-1.8Z"/>
          <path id="Tracciato_3843" class="st0" d="M143.6,73.5h11.7c.3,0,.5,0,.5-.4s.6-2.1.7-2.5c.2-.4.1-.7.1-.7h0s-.2,0-.4.5c-.4.7-.8,1.4-1.4,1.9-.5.4-.8.6-3.8.6s-2.9,0-3.3,0c-.8,0-.8-.7-.9-1.8,0-.7-.2-5.6-.1-6.6,0-.3.2-.5.3-.5,2,0,3.9,0,5.9.2.5,0,.7.6.9,1.1v.2h0c.2.4.3.6.4.6s.1-.3,0-.5v-1.9c0-.2,0-.6.1-.9,0-.4.1-.8.1-.9v-.5s-.2,0-.3.4c-.3.9-.6,1.1-.8,1.2-.9.3-1.8.4-2.7.3h-3.5c-.2,0-.3-.2-.3-.4h0v-7.2c0-.4.1-.5.4-.5,2,0,4,0,6,0h0c.6,0,1.1.7,1.7,2q.2.4.3.4c.1,0,0,0,0,0,0,0,.1-.3,0-.5,0-.4-.1-1-.2-1.6v-.7c0-.2-.2-.4-.3-.4h-12.1c-.4,0-.4,0-.4.2s.1.2.5.3c1.2.3,1.7.6,1.7,2.3v5.4c0,3.1,0,6.7-.1,8.6,0,1.3-.6,1.6-1.7,1.8-.4,0-.6,0-.6.3s.4.2.7.2h.9Z"/>
          <path id="Tracciato_3844" class="st0" d="M179.4,55c.4,0,.6-.2.6-.3s-.4-.2-.6-.2h-4.7c-.4,0-.6,0-.6.2s.2.3.6.3c1.5.3,2.1.6,2.2,2.4v12.2s0,.2-.1.2h-.2c-2.7-3.1-10.5-11.9-12.4-14.4-.4-.6-.6-.7-.7-.7-.9,0-1.7,0-2.4,0h-1.2c-.3,0-.6,0-.6.2s.1.2.6.3h.1c.5,0,1.1.3,1.5.6s.5.7.5,2.3-.2,11.1-.3,12.5c-.2,2-.4,2.6-1.9,2.9-.4,0-.7,0-.7.3s.5.2.7.2h.5c.6,0,1.1,0,1.7,0s1.2,0,1.7,0h.9c.6,0,.7,0,.7-.2s-.2-.2-.7-.3c-1.7-.3-2.1-.9-2.1-3.5v-12.4h0c0,0,.2,0,.2,0,4.2,4.8,12.7,15,13.3,15.8.7.9.9,1,1,1h.1c.1-.3.2-.5.1-.8v-5.6c0-2.9,0-9.3.2-10.6,0-.9.7-1.7,1.7-1.9h0l.3-.4Z"/>
          <path id="Tracciato_3845" class="st0" d="M183.1,73.6h14.8c.5,0,1.2,0,1.2-.4.2-1,.4-2.1.7-3.1,0-.3.3-.9.1-.9s-.3.2-.5.5c-.3.8-.7,1.5-1.2,2.2-.5.5-1.2.8-1.9.8h0c-.8,0-8.7,0-9.7,0h0c-.2,0-.3,0-.4-.2v-.2c2.3-3.5,7.8-11.4,9.6-14,.2-.2.4-.5.7-.9.7-.9,1.6-2.2,2.1-2.7,0,0,.1-.2,0-.2h-.1c-.9,0-1.8,0-2.7,0h-10.4c-.5,0-.9,0-1.3-.3h-.3c0,0-.1.3-.2.6-.3.7-.7,1.7-1,2.4-.2.6-.2.9,0,.9s.2-.2.3-.4c.4-.7.9-1.4,1.6-2,.4-.3.8-.5,1.3-.6h9.4c.1,0,.2,0,.3,0s0,.2-.1.4h0c-3,4.5-9.4,13.7-12.3,17.5,0,0-.1.2,0,.2,0,0,.1,0,.3,0h0l-.3.2Z"/>
          <path id="Tracciato_3846" class="st0" d="M203.1,73.6h12.5c.2,0,.4-.2.5-.4,0-.4.6-2.1.7-2.5.2-.4.3-.7,0-.8,0,0-.2,0-.4.5-.4.7-.8,1.4-1.4,1.9-.5.4-.8.6-3.8.6s-2.9,0-3.3,0c-.8,0-.8-.7-.9-1.8,0-.7-.2-5.6-.1-6.6,0-.3.2-.5.3-.5,2,0,3.9,0,5.9.2.5,0,.7.6.9,1.1v.2h0c.2.4.3.7.4.7s.1-.3,0-.5v-1.9c0-.2,0-.6.1-.9,0-.4.1-.8.1-.9v-.5s-.2.2-.3.4c-.3.9-.6,1.1-.8,1.2-.9.3-1.8.4-2.7.3h-3.5c-.2,0-.3-.2-.3-.4h0v-7.2c0-.4.1-.5.4-.5,2,0,4,0,6,0h0c.6,0,1.1.7,1.7,2q.2.4.3.4c.2,0,.1-.3.1-.5,0-.4-.1-1.1-.2-1.6v-.7c0-.2,0-.4-.3-.4h-12.1c-.4,0-.4,0-.4.2s.1.2.5.3c1.2.3,1.7.6,1.7,2.3v5.4c0,3.1,0,6.7-.1,8.6,0,1.3-.6,1.6-1.7,1.8-.4,0-.6,0-.6.3s.4.2.7.2h.1Z"/>
        </g>
      </g>
      <g id="Raggruppa_910">
        <path id="Tracciato_3847" class="st0" d="M43.8,18.1v-.9c0-.7.2-1.5.6-2.1h0c.6-1.3.6-2.8-.2-4.1l1.8-4.6h0v-.2c0,0-1.1-2.7-6.9-3-2.3,0-4.7.5-6.7,1.8h0v.2c0,.4.4,1.5,1.3,4.7-.3.7-.3,1.4-.3,2.2v1c-.3,1.5-.3,3.1,0,4.6-1.6.3-3.2.7-4.8,1.2l-1.8-.8h0l-1.3,2.1h0c-13.3,6.9-18.6,23.3-11.7,36.6,1.6,3.1,3.7,5.8,6.3,8.1.2,0,.3.3.5.4,4,3.3,8.8,5.4,14,6.1h7c1.7-.3,3.3-.6,4.9-1.1.2,0,.3,0,.5-.2.9-.3,1.8-.7,2.7-1.1.2,0,.3,0,.5-.2.5-.2.9-.5,1.4-.7.2,0,.3-.2.5-.3,2.4-1.4,4.6-3.2,6.5-5.4.2-.2.3-.4.5-.5,9.7-11.5,8.3-28.6-3.2-38.3-3.4-2.9-7.4-4.9-11.8-5.8h0l-.4.3ZM44.3,12.8h0c0,.7,0,1.4-.3,2.1-.5.7-.7,1.5-.7,2.4h0v.7c0,.2,0,.3-.2.4,0,0,0,.2-.2.3v.3c.4.4.7,1,.8,1.6h0c-.7-.5-1.2-1.4-1.3-2.3v-.5c0-.2,0-.3.2-.4.2-.5.3-1,.2-1.6h.3c.2-.2.3-.5.3-.8s0-.5.2-.6h0c.3-.4.5-1,.3-1.5h.4ZM46.9,22.9l2.5.8c2.2.6,3.9,2.3,4.7,4.5l3.7,11.6c.9,2.8,1.6,5.8,2.1,8.7-.7-1.4-1.9-2.5-3.4-3.1-3.6-1.1-5.9-.3-7.4,1.1,1.1-2.9,4.1-4.5,7.1-3.8,0,0,.2,0,.3-.2,0,0,0-.2-.2-.3-2.2-.5-4.5,0-6.1,1.7.4-.7.7-1.5,1-2.1v-.2s0,0,0,0l-2.3-1.1c.8-2.4,2.7-4.3,5.2-4.9,0,0,.2-.2.2-.3s-.2-.2-.3-.2h0c-2.6.7-4.7,2.6-5.5,5.2h-.3v-11.2c0-.1,0-.2-.2-.2s-.2.1-.2.2v10.9l-4.5-2.1h0s-.7-.3-1.5.6v-8.8c0-.1,0-.2-.2-.2s-.2.1-.2.2v9.5l-2.4,4.9v-17.1h1.3c.6,0,1.2-.2,1.6-.6l4.2-3.7c.3.1.7.2,1,.3h0ZM55.6,47.3c-1.7-1-3.9-1-6.6,0,1.4-1.5,3.6-2.7,7.5-1.5,2.3,1,3.9,3.3,3.9,5.8.3,1.9-.3,3.8-1.5,5.2v-3.1c0-.2-.2-4.7-3.2-6.5h-.1ZM49.5,53.3l-2.8,3.2-.4.4h0c-.3.3-.8.6-1.2.6.4-.2.7-.5,1-.7v-.3c0,0-.2,0-.3,0s-1.7,1.6-2.9,1c.8-.2,1.6-.7,2.2-1.2,0,0,0-.2,0-.3s-.2,0-.3,0h0c-.8.7-1.8,1.1-2.8,1.2h-.4c1-.2,2-.7,2.7-1.5v-.3h-.3c-1.2,1.1-2.2,1.6-3,1.3-.5-.2-.8-.5-1.1-.9l.6.3h0c.5-.2.9-.4,1.3-.7h0c.2,0,.4-.3.5-.5l1.8-2.4v-.2s0,0-.2,0h-1.5q0,0,0,0c-.4.4-1,.4-1.5.2l1.4-.8s2.6-1.3,4.1-.5h.4c.6-.6,1.5-.7,2.2-.3.5.3.9.8,1,1.4,0,.6,0,1.2-.4,1.6h0v-.5ZM20.6,54.8h0c-2.5-4.5-2.6-10,3.6-26.2.5-1.7,1.7-3.1,3.3-4l2.5,9.7-.6.6c-.6.7-.7,1.6-.3,2.4v.2c.2,1.3,0,2.6-.4,3.9-.3.7-.8,1.6-.9,2h0c-.4.9-.1,2,.7,2.5.6.4,1.4.8,2.1,1h0c1,.3,2.1.4,3.1.3l.8,3.2c-1,1.2-4.2,2.3-7.2,1.6-1-.3-1.9-.9-2.6-1.8-.7-1.1-1-2.5-.8-3.8,0-.9.3-1.8.5-2.8,0-.4.2-.9.3-1.3,0-.5.1-.9.1-1.4s-.1-.2-.2-.2h0c-.1,0-.2,0-.2.2,0,.4,0,.9-.1,1.3,0,.4-.2.8-.3,1.3-.2.9-.4,1.9-.5,2.8-.2,1.4.1,2.9.9,4.1.7,1,1.7,1.7,2.8,2,.7.2,1.4.3,2.2.3,1.9,0,3.8-.6,5.3-1.8l.3,1.1-.3.6h0s0,.2,0,.3c0,0,0,.2,0,.2l3,1.5c-.9,0-1.8,0-2.6.6-6.2,3.6-10,3.1-12.1,2-1-.5-1.8-1.3-2.4-2.3h0ZM27.7,23.7c.3,0,.5-.2.8-.4h.1c.3,0,.5,0,.8-.2h0c0,.1.1.6.1.6l2.4,9.2c-.4,0-.8.2-1.1.4l-.4.4-2.5-9.5v-.5c-.1,0-.2-.1-.2-.1h0ZM28.2,22.9c-.1,0-.2,0-.4-.1-.2,0-.3-.2-.4-.3,0,0-.2-.2-.2-.3-.2-.3-.3-.7-.2-1.1v-1.2c.1,0,.1-.7.1-.7l.5.5.3.4.5.6h0c.3.3.4.6.5,1v.6c0,.2-.1.3-.2.4,0,0,0,.1-.1.2l-.2.2h-.1v-.2ZM32,23h0l2.2,2.9h0c.5.6,1.2.9,1.9.9h2.1v18.1l-1.5,3.1-.9-3.2v-16.8c0-.1,0-.2-.2-.2s-.2.1-.2.2v15.1l-.9-3.3c.3-.2.5-.6.4-.9h0l-.2-.4c.2,0,.3-.3.4-.5,0-.2,0-.5-.2-.7l-.4-.5c.2-.2.3-.5.3-.8s-.2-.6-.5-.7l-.6-.4c0-.3-.2-.6-.4-.9l-.8-.8-2.5-9.5,1.3-.4c.2,0,.5-.2.7-.3h0ZM41.6,39.3h0c.4-.7.8-1,1-1.1l-6.9,13.6c0,0-.2,0-.3,0l1.5-3.1h0l4.6-9.4h.1ZM40.6,55.4l-5.5-2.7c.2-.2.5-.3.8-.4l5.4,2.7c-.3.2-.5.3-.8.4h0ZM32.8,41.5c0,0,0-.3,0-.4,0-.5,0-1,0-1.5,0,0,.2-.2.3-.3h.7c.2,0,.3.2.3.4l2.5,8.9-1.2,2.5-2.5-9.7h0ZM28.7,45.3c-.7-.4-.9-1.2-.5-1.9h0c.4-.9.7-1.5.9-2,.6-1.3.7-2.8.5-4.2v-.2c-.4-.6-.3-1.4.2-1.9l.4-.4.4-.4.6-.6s.5-.5.9-.3h0l.6.6.3.2s0,.2,0,.3h-.3v-.2c-.2,0-.4,0-.5,0-.2,0-.4,0-.6.2l-.9.8-.3.3v.2h0c0,0,.2,0,.3,0h.1c0,0,1-1.1,1-1.1.1,0,.3,0,.4,0h.2l.4.2.3.2h0l.7.4c0,0,.2.2.2.4s0,.3,0,.4l-.3-.4c-.2,0-.4-.2-.6-.2h-.5c0,0-.2,0-.3,0l-.9.5c-.1,0-.1.2,0,.3s.2,0,.3,0l.9-.5h.7l.5.6h0l.5.6c0,.2,0,.3,0,.3,0,0,0,.2,0,.2v-.2h0c-.2-.2-.4-.3-.6-.4h-.6l-1.1.2c-.1,0-.2,0-.2.3s.1.2.3.2h0l1.1-.2h0c.2,0,.4,0,.6.2h0l.5,1v.3h0c0-.2-.3-.3-.4-.4h-1.1c-.3,0-.5.2-.6.5h0c-.2.7-.2,1.3,0,1.8h0c.4,1.6-1.3,4.2-1.7,4.8-.6-.2-1.3-.5-1.8-.9h0v.3ZM32.6,42.9l.9,3.6c-.9,0-1.7,0-2.6-.2.7-1,1.3-2.1,1.6-3.3h0ZM22.7,57.4s.1,0,.2,0l3.2,7.6s.8,2.1,2.8,2.1.7,0,1-.2c.9-.4,1.5-1.1,1.8-2,0,1.4-.8,2.7-2,3.3s-1.3.4-1.9.2c-1.8-.7-2.9-3.4-2.9-3.5l-3.7-8.7c.5.4,1,.8,1.5,1.1h0ZM31.8,62h0c.2,3.7-1.7,4.4-1.8,4.5-2.2.8-3.2-1.6-3.2-1.7l-3-7.1c2.3.9,6,.9,11.7-2.4,1.2-.7,2.6-.8,3.9-.2-.3.8-2.9,6.6-7.4,6.8h-.2ZM47,49.8h0v.2h0c-.2,0-.3.2-.5.4-1.7-.8-4.3.5-4.4.5l-1.7,1v.2c0,0,0,0,0,.2.6.6,1.6.7,2.3,0h1l-1.5,2.1-.3.3-5.5-2.7,6.9-13.6,7.6,3.6c-2.3,4.7-2.8,5.9-3,6.3-.3.5-.6,1.1-.8,1.7h0v-.2ZM41.4,26c-.4.3-.8.5-1.3.5h-3.9c-.6,0-1.1-.3-1.5-.7l-2.2-2.9c.2-.1.5-.3.7-.4l2.1,2.9c.2.3.6.5,1,.5h3.9c.3,0,.6-.1.8-.3l3.8-3.3c.2.1.4.2.7.3l-4,3.6h0v-.2ZM40.7,25.1c0,.1-.3.2-.5.2h-3.9c-.2,0-.5,0-.6-.3l-2.1-2.8c.2-.1.4-.3.5-.4,0,.2.2.4.3.6h0c0,.9.7,1.6,1.4,2.1v.2s0,.1.2.1h.2c.3-.3.6-.4,1-.4.9,0,1.8-.4,2.4-1.2.4,0,.8-.4,1.1-.7,0-.2.2-.4.2-.6.6-.2,1.2-.6,1.4-1.2v-.6c.4.8,1.1,1.4,1.9,1.9l-3.7,3.2h.2ZM44.2,9.9l-.4.9c-2.2-.8-4.6-1.2-6.9-1.2s-1.8,0-2.7.2c0-.3-.2-.6-.3-1,3.5-.9,7.1-.5,10.3,1h0ZM35.3,7.7c-.7-.6-.8-1.5-.5-2.3.7.6.9,1.5.5,2.3ZM35.9,6.4l1.2-1.5,1.3,1.5c0,.5,0,1.1.4,1.5h-3.1c.3-.5.4-1.1.3-1.7h0v.2ZM42.5,8.7c-1-.3-2.1-.6-3.2-.7.4-.4.7-.9.7-1.4l1.7-1.1.9,1.6c-.2.5-.3,1.1,0,1.6h0ZM39.1,7.6c-.4-.8-.3-1.7.3-2.4.5.8.4,1.7-.3,2.4h0ZM44,6.3c.2.9-.2,1.8-1,2.2-.2-.9.3-1.7,1-2.2h0ZM43.5,12.9c-.3.3-.5.6-.6,1,0,.2,0,.5-.2.6v-.2c-.4-.6-.5-1.2-.5-1.9h0v-1.7c.6.2,1.3.3,1.9.6,0,0,0,.2.2.3.2.5,0,1.1-.5,1.3h-.3ZM43.9,13.2c0,.3,0,.6-.3.8-.2.3-.4.6-.3,1,0,.1,0,.4,0,.4h0c0-.1,0-.3,0-.4.3-.2.5-.6.5-1s.2-.5.4-.7h0ZM36.9,15.5h-1.4v-.4l.5-2.5h0c0-1.1-1.2-1.3-1.9-1.4,0-.3,0-.7.2-1,2.4-.4,4.9-.3,7.2.3,0,.4.6,2.3-1.1,5.7-.2.4-.4.8-.5,1.3v.3c0-.1-.2-.2-.3-.3h0c-.2-.2-.4-.4-.6-.7-.5-1.1-1.1-1.4-1.4-1.5h0c0-.2-.2-.3-.3-.2,0,0-.2.1-.2.2v.3h-.2ZM34,12.4v-.6c.4,0,1.3.1,1.5.8h0c-.4-.2-.9-.3-1.4-.2h0ZM35,13c-.3.2-.6.3-1,.3v-.5c.3,0,.7,0,1,.2h0ZM33.9,13.8h.2c.4,0,.8-.2,1.2-.4l-.3,1.6v.6c-.4.4-.7,1-.7,1.7s0,.3,0,.4c-.3-1.3-.3-2.7-.2-4h-.1ZM34.2,18.6h0c0-.1.2-.2.2-.3,0-.2,0-.3.2-.5v-.3c.2-1,.5-1.4.6-1.4h1.4c.2,0,.4,0,.6-.2h0c.2-.1.7,0,1.1,1.1,0,.2.2.4.4.5,0,.1.2.3.4.4,0,0,0,0,0,.1.3.3.4.6.4,1h0v-1c0-.2,0-.3,0-.5,0-.4.3-.7.5-1.1.4-.9.8-1.8,1-2.7,0,.3.2.5.4.8.5.8.5,1.8.3,2.6,0,.2-.2.4-.3.6,0,.1,0,.3,0,.4h0c0-.2-.2-.2-.3-.1h0v.3c.4.6.6,1.3.5,2-.2.4-.5.7-.9.9,0-.4,0-.8-.3-1.2,0-.1-.2-.2-.3-.1s-.2.2,0,.3c.3.6.3,1.3,0,2-.2.3-.5.5-.8.6,0,0,0,0-.2.1-.5.7-1.2,1-2.1,1s-.8.1-1.1.4c-.2-.9-.2-1.9.2-2.7,0-.1,0-.3,0-.3s-.3,0-.3.1h0c-.3.8-.5,1.6-.4,2.5-.9-.9-1.1-2.2-.5-3.2,0-.1,0-.3-.2-.3h-.3c-.2.4-.3.8-.3,1.2h0v-.3c0-.5,0-1.1.3-1.5v-.3h-.3c0,.1,0,.3-.2.4,0-.4,0-.8.2-1.2h.2ZM44.4,9.5c-.4-.2-.9-.4-1.3-.6.6-.3,1.1-.9,1.3-1.5l1.1-.5-1.1,2.6h0ZM39.2,3.9c4.6.2,6,1.9,6.4,2.5l-1.1.5v-.9s0,0,0-.2h-.2c-.4.2-.8.5-1.1.9l-.9-1.5h0c0,0,0,0-.2,0l-1.6,1c0-.5-.2-.9-.5-1.3h-.2c0,0,0,0-.2,0-.4.3-.6.7-.8,1.2l-1.2-1.5h-.4l-1.2,1.5c-.2-.4-.5-.8-.8-1.1h-.2s0,0-.2,0c-.2.4-.3.8-.4,1.2l-1.1-.7c1.9-1,4-1.6,6.1-1.5h0ZM33.8,8.5c-.3-1-.6-2-.8-2.6l1.2.8c0,.6.4,1.1.9,1.5-.4,0-.9.2-1.3.3h0ZM33.8,18.3h0c-.4.7-.4,1.5,0,2.2v.7c-.8.6-1.7,1.1-2.7,1.5l-1.3.4v-.2c.4-.3.7-.8.8-1.3.1-.5,0-1.1-.3-1.6-.2-.3-.5-.6-.9-.8,1.4-.5,2.8-.8,4.2-1h.2ZM28.3,19.3l.6.3h.3c.4.2.7.5.9.8.5.8.3,1.8-.5,2.2h0c-.1,0-.3.2-.5.2h0c0-.1.2-.3.2-.4.1-.3.2-.6.1-.9,0-.5-.3-.9-.6-1.3l-.4-.4-.3-.4-.2-.3.4.2h0ZM26.7,19.5v1c-.1,0-.1.4-.1.4-.1.5,0,1,.3,1.4.1.2.3.4.5.6.1,0,.3.2.4.2h-.5c-.4,0-.8-.1-1.1-.4-.3-.3-.6-.7-.6-1.1s0-.7.2-.9v-.2l.4-.6.4-.7h0v.3ZM11.2,44.7c0-9.8,5.4-18.8,14-23.5v.7c.1,1.1,1,1.9,2.1,1.9h0v.3c-1.7.9-3,2.4-3.6,4.3-6.3,16.3-6.1,22-3.6,26.6v9.7c-5.7-5.1-8.9-12.3-8.9-19.9h0ZM20.6,65.1v-9l3.9,9.2c0,0,1.2,3,3.2,3.7.3,0,.6.2.9.2.5,0,.9,0,1.4-.4,1.3-.7,2.1-2,2.2-3.4.5,2,1.2,4,2.2,5.9-5.1-.7-9.8-2.8-13.7-6.2h-.1ZM34.9,71.3c-1.3-2.5-2.2-5.3-2.7-8.1,0-.3,0-.5,0-.8,2.3-.4,4.3-1.7,5.6-3.7.7-.9,1.3-1.9,1.8-3,.2.5.6.8,1.1,1,0,0,.2.2.4.3l-4.8,14.3c-.4,0-.9,0-1.3,0h0ZM38,71.5h-1.3l2.8-8.5v8.5h-1.5ZM40,71.4v-9.8l1-2.9v12.7h-1ZM41.4,71.3v-13.9c.2,0,.4,0,.6,0h.2c.3.3.8.5,1.3.5s.7,0,1.1-.2c.2,0,.4.2.6.2.4,0,.8-.2,1.2-.4v12.7c-1.6.5-3.2.9-4.9,1.1h0ZM46.8,70v-12.9l.3-.3,2.4-2.7v14.8c-.9.4-1.8.8-2.7,1.1h0ZM49.9,68.7v-15.1c.4-.5.6-1.2.5-1.9-.2-.7-.6-1.3-1.3-1.7-.2,0-.4-.2-.6-.2.5,0,1,0,1.4.3,1.5,1,1.4,4.3,1.4,4.4v13.6c-.5.3-.9.5-1.4.8h0v-.2ZM51.8,67.6v-13.3c0,0,0-3.6-1.7-4.8-.8-.5-1.7-.5-2.5,0,.2-.4.3-.7.6-1.1h0s0-.2.2-.3c2.9-1.3,5.3-1.5,7-.4,2.8,1.7,3,6.1,3,6.2v3.6h0v4.6c-1.9,2.2-4.1,4-6.5,5.5h0ZM58.8,57.6c1.6-1.5,2.3-3.8,2-5.9,0-.5,0-.9-.2-1.4h0c-.4-3.6-1.1-7.2-2.3-10.6l-3.7-11.6c-.7-2.4-2.6-4.2-5-4.8l-2.5-.8c-.4-.1-.7-.2-1.1-.4h0c-.6-.3-1.3-.6-1.8-1,0-.1,0-.3,0-.4,0-.7-.4-1.3-.8-1.8,0,0,0-.2.2-.3,14.4,3.1,23.6,17.3,20.5,31.8-.9,4.1-2.7,7.9-5.4,11.2v-4h0Z"/>
        <path id="Tracciato_3848" class="st0" d="M35,17.5c0,0,.3,0,.3-.1,0,0,0-.2.5,0h1.2c.2,0,.3,0,.4.2h0c0,.1,0,.3,0,.4.2.5.5,1,.9,1.4.7.7.9,1.7.5,2.6,0,.1,0,.3,0,.3h0s.2,0,.2-.1c.4-1.1.2-2.3-.6-3.1-.3-.3-.6-.7-.7-1.1,0-.1,0-.3,0-.4h0c0-.4-.5-.7-.9-.7h-1c-.6-.2-.9,0-1,.3,0,.1,0,.3,0,.3h0Z"/>
        <path id="Tracciato_3849" class="st0" d="M37,17.7h-1.8s-.2,0-.2.2,0,.2.2.3h.6v.6c0,.1,0,.2.2.2h0c0,0,.2-.2.2-.3h0v-.3s.2-.1.3-.1h.3s.2,0,.2-.2h0c0-.1,0-.2-.2-.2h0l.2-.2Z"/>
        <path id="Tracciato_3850" class="st0" d="M36.7,19.6c-.2,0-.4,0-.6-.1h-.3s0,.2,0,.3h0s.3.3,1,.3h0c0,0,.2-.1.2-.2s0-.2-.2-.2h-.1Z"/>
        <path id="Tracciato_3851" class="st0" d="M40.3,12.4c0,0,.3,0,.3-.1v-.3c-1.2-.9-2.8-.8-3.8.2v.3h.4c.9-.8,2.3-.9,3.3-.1h-.2Z"/>
        <path id="Tracciato_3852" class="st0" d="M37.3,12.8v.4c.4.4.9.6,1.4.6s.9-.2,1.3-.5v-.4c-.7-.8-1.9-.9-2.6-.2h-.1ZM37.8,13c.5-.3,1.2-.3,1.6.1-.5.3-1.2.3-1.6-.1h0Z"/>
      </g>
      <g id="Raggruppa_911">
        <path id="Tracciato_3853" class="st0" d="M52.5,9.6h0c0,.3-.2.6-.2.8s0,.2,0,.2,0,0,0-.2c0-.3,0-.5-.2-.7-.2-.3-.4-.5-.7-.6-.7-.2-1.4.1-1.6.8-.2.5,0,1,.3,1.4s.5.8.8,1.1c.5.5.6,1.3.4,2-.5,1-1.7,1.5-2.8,1h0c-.5-.2-.9-.4-1.3-.8,0,0,0-.2,0-.3,0-.3,0-.5.2-.8,0-.1,0-.2,0-.2s0,0,0,.2c0,.7.4,1.4,1.1,1.6.7.3,1.5,0,1.8-.8h0c.3-.7,0-1.2-.6-2-.6-.6-.9-1.6-.7-2.4.2-.5.6-.9,1.1-1.1.5-.1,1-.1,1.4,0,.4.2.7.4,1.1.6h0v.2Z"/>
        <path id="Tracciato_3854" class="st0" d="M52.5,16.8c.5.2.6,0,.9-.3.6-.9,2.7-4.6,2.8-4.7h0c-.2-.3-.4-.4-.7-.5-.3-.2-.5-.3-.8-.4-.2,0-.4,0-.7.3,0,0-.2.1-.2,0v-.2c.2-.2.4-.5.6-.7,0,0,0-.1,0-.1s0,0,0,0c0,0,0,.2.2.3,0,0,1.1.6,2,1.2.7.4,1.6.9,1.9,1,.2.1.4.2.6.2h0c-.2.3-.3.5-.4.8,0,.1-.2.2-.2.2v-.7c0-.1,0-.2-.8-.6-.3-.2-.8-.4-.9-.5,0,0,0,0,0,.1-.2.3-1.5,2.5-1.7,2.9-.3.5-.9,1.7-1.1,2,0,.3,0,.5.2.7,0,0,0,.1,0,.2s0,0-.2,0c-.2-.1-.5-.3-.8-.6-.5-.3-.8-.4-.9-.5,0,0,0-.1,0-.2s0,0,.2,0h0Z"/>
        <path id="Tracciato_3855" class="st0" d="M60.8,14.2c.2.2.4.4.7.7.2.2.5.4.7.6,0,0,0,.1,0,.2h-.2c-.5-.3-.7,0-1,.4-.7.7-1.7,1.8-2,2.2-.5.5-.7,1.1-.8,1.7,0,.6.3,1.1.7,1.4.9.8,1.9.9,3.4-.7.3-.3.6-.7.9-.9,1.4-1.5,1.4-1.7,1.2-2,0,0,0-.2-.2-.2v-.2h.2c.2.1.3.3.5.5s.4.3.6.5c0,0,0,.1,0,.2h-.2c-.4-.2-.5,0-.9.3-.5.5-1.4,1.5-1.9,2-.6.7-1.4,1.2-2.3,1.4-.7,0-1.4-.3-1.9-.7-.5-.4-.8-.9-.9-1.5,0-.8,0-1.4.9-2.5.5-.6,1.7-1.9,2.1-2.4.3-.4.4-.5,0-.9v-.2h.2Z"/>
        <path id="Tracciato_3856" class="st0" d="M66.9,20c.3.4.5.7.8,1.1.2.2.5.5.6.7.5.7.8,1.4.9,2.3,0,1.2-.4,2.3-1.4,3-1.3,1-3.2.9-4.4-.3-.2-.2-.5-.5-.6-.8,0-.2-.3-.4-.4-.7s-.3-.5-.5-.8c-.2-.2-.4-.5-.4-.6v-.2h.2c.3.4.4.4.8.1.2-.1,1.1-.7,1.8-1.2,1.6-1.1,2.3-1.7,2.5-1.9.3-.2.3-.3.2-.7v-.2c0-.1,0,0,.2.1h-.3ZM67.6,21.3h-.3c-.3.2-.6.4-2.2,1.5-.9.6-1.4,1.1-1.8,1.4-.4.4-.6.6-.6.9s0,.6.3.8c.2.3.5.6.9.8,1.1.5,2.4.3,3.3-.4.8-.5,1.3-1.3,1.5-2.3,0-.8,0-1.6-.6-2.3,0-.2-.3-.4-.5-.5h0Z"/>
        <path id="Tracciato_3857" class="st0" d="M71.4,26.9c.2.3.2.6.4.8.2.3.3.6.4.8v.2c0,.1,0,0-.2-.1-.3-.4-.4-.3-.8-.1-.5.2-1.6.8-2.2,1.1-1.4.7-2.2,1.1-2.5,1.3-.4.2-.4.3-.3.6v.2h0c0-.2-.2-.5-.3-.8-.2-.5-.4-.7-.5-.9v-.2l.2.2c.3.3.4.3,1,0s3.2-1.6,3.7-1.8c.3-.1.6-.3.9-.5s.3-.3.2-.7h0q0-.1,0,0h0Z"/>
        <path id="Tracciato_3858" class="st0" d="M71.9,38c-1.3.4-2.7,0-3.6-1-.3-.4-.6-.8-.7-1.3-.5-1.9.6-3.9,2.5-4.4,1.1-.4,2.2-.2,3.1.5.6.5,1,1.1,1.2,1.8.5,1.9-.6,3.8-2.5,4.4h0ZM72.9,32.2c-.8-.3-1.7-.3-2.6,0-.8.3-1.5.8-2,1.5-.5.6-.7,1.4-.5,2.2,0,.4.4.7.7,1,.9.6,2,.7,3.1.3.9-.3,1.7-.8,2.2-1.6.4-.6.5-1.3.3-2-.2-.6-.7-1.1-1.2-1.3h0Z"/>
        <path id="Tracciato_3859" class="st0" d="M75.4,42.8c-.3.4-.7.7-1.2.8-.5,0-.9,0-1.2-.5-.2-.2-.3-.4-.4-.6h-.2c-.4.2-1.3.9-1.8,1.3-.3.3-.6.5-.9.8-.2.2-.4.5-.4.8h0q0,0,0,0v-.5c0-.6.2-1.2.7-1.6.6-.5,1.8-1.4,2.1-1.6,0,0,.2-.2.3-.4v-.4h0c0,0-1.4,0-1.8,0-.3,0-.7,0-1,.2,0,0-.2,0-.3.5v.2-1.1c0-.4,0-.8,0-1v-.2.2c.2.3.3.4.7.4.6,0,1.5,0,2.8-.2,1.5,0,2.2-.2,2.5-.3.3,0,.5,0,.5-.5v-.2,1c0,.4,0,.7,0,1.3s0,1-.3,1.5h0ZM75.4,40.6h-.2c-.2,0-2.4.2-2.6.2s-.2,0-.2,0v.3c0,.4,0,.8.3,1.1.3.4.8.5,1.2.5s.9-.2,1.2-.5c.3-.4.4-.8.3-1.2,0,0,0-.2,0-.3h0v-.2Z"/>
        <path id="Tracciato_3860" class="st0" d="M75.9,46.1c0,.3,0,.6-.2.9v1.1-.2c0-.6-.4-.6-.9-.6-1,0-2.4-.3-3-.4-.6,0-1.3,0-1.8.4-.4.4-.7.9-.8,1.4,0,1.2.4,2.1,2.5,2.4.4,0,.9,0,1.2.2,2,.3,2.2.2,2.3,0,0,0,0-.2,0-.3,0,0,0,0,0,0v.2c0,.2,0,.4,0,.7v1-.2c0-.4-.2-.5-.7-.6-.6,0-2.1-.3-2.7-.4-.9,0-1.8-.5-2.4-1.1-.4-.6-.6-1.3-.4-2,0-.6.3-1.1.7-1.6.7-.6,1.6-.9,2.5-.6.8,0,2.5.3,3.1.3s.6,0,.8-.4c0,0,0,0,0,0s0,0,0,.2h-.4Z"/>
        <path id="Tracciato_3861" class="st0" d="M74.7,54.4c0,.2-.4.8-.5,1.1h-.2c-1.1,0-4.5.4-5.9.6h0c.9,1.1,2.9,3.3,3.3,3.8.2.2.5.5.7.6,0,0,0,0,0,0,0,.3-.3.8-.4,1.1q0,0,0,0c0,0,0,0,0-.2,0-.6,0-.7-.6-1-.3,0-1.5-.6-2-.8-1.1-.4-2.1-.8-2.4-.9-.6-.2-.7,0-1,.2,0,0,0,0-.2,0s0,0,0-.2.3-.7.4-1c.2-.4.2-.7.3-.8,0,0,0-.2.2-.2v.2c0,.5,0,.6.9.9.5.2,3.2,1.3,3.7,1.4q0,0,0,0c-1.1-1.2-3-3.3-3.9-4.2,0,0,0-.2,0-.2h.4c1.2,0,4.5-.3,5.4-.4q0,0,0,0c-.6-.3-3.1-1.4-3.5-1.5-.2,0-.5-.2-.8-.2s-.5,0-.6.4c0,0,0,0-.2,0s0,0,0-.2.2-.5.4-.8.2-.7.2-.8,0-.2,0,0v.2c0,.2,0,.5,0,.7.3.3.6.5,1,.6.6.3,2.7,1.3,3.4,1.5.6.2.8.2,1,0,.2,0,.4-.2.5-.4h0c0,0,0,0,0,.1h.3Z"/>
        <path id="Tracciato_3862" class="st0" d="M68.3,67.4l-.7.7c-.2.2-.4.5-.6.7,0,0,0,0-.2,0v-.2c.3-.5,0-.7-.4-1-.7-.7-1.8-1.7-2.2-2-.5-.5-1.1-.7-1.7-.8-.6,0-1.1.3-1.4.7-.8.9-.9,1.9.7,3.4.3.3.7.6.9.9,1.5,1.4,1.7,1.4,2,1.2,0,0,.2,0,.2-.2h.2v.2c0,.2-.3.3-.5.5s-.3.4-.5.6c0,0,0,0-.2,0v-.2c.2-.4,0-.5-.3-.9-.5-.5-1.5-1.4-2-1.9-.7-.6-1.2-1.4-1.4-2.3,0-.7.3-1.4.7-1.9s.9-.8,1.5-.9c.8,0,1.4,0,2.5.9.6.5,1.9,1.7,2.4,2.1.4.3.5.4.9,0h.2v.2h-.1Z"/>
        <path id="Tracciato_3863" class="st0" d="M62.6,73.5c-.3.2-.7.5-1.1.7h-.3c-1.1-.3-5.1-1.3-6.6-1.6h0c.2.3,2,2.7,2.5,3.5.4.5.6.5,1,.3h.2s0,0,0,.2c-.2,0-.4.3-.6.4-.3.2-.4.4-.5.4h-.2c-.1,0,0,0,0-.2.2-.2.2-.6,0-.8-.2-.4-1.5-2.2-2.1-3s-.9-1.3-1.2-1.8c0-.2-.2-.3,0-.3h.5c.9.3,5,1.3,7.2,1.8h0c-.2-.3-2.2-3.2-2.5-3.6-.2-.3-.4-.5-.6-.7h-.8s0,0,0-.2c.2,0,.4-.2.7-.4s.5-.4.6-.5h.2s0,0,0,.2c-.3.3-.3.5,0,1,.2.4,2.1,3.2,2.6,3.9.4.5.5.5.6.5.2,0,.4,0,.5,0h.2v.2h-.1Z"/>
        <path id="Tracciato_3864" class="st0" d="M55.2,78.3c-.3,0-.6.2-.8.4-.3,0-.6.3-.8.4h-.2v-.2c.5-.2.4-.4.2-.8-.2-.5-.8-1.6-1-2.2-.7-1.4-1.1-2.2-1.2-2.5-.2-.4-.3-.4-.6-.3h-.2.2c.2,0,.4-.3.7-.4.5-.2.7-.4.9-.5h.2l-.2.2c-.3.3-.3.4,0,1s1.5,3.2,1.8,3.7c0,.3.3.6.5.9s.3.3.7.2h0,0c0,0-.2.1-.2.1Z"/>
        <path id="Tracciato_3865" class="st0" d="M52.3,79.7c-.2,0-.7.2-.9.2-.3,0-.8.3-.9.3h-.2s0,0,.2-.2.3-.3.3-.4c0-.2-.2-.3-.3-.4-.4-.5-2.6-3.3-3-3.7h0c0,.4-.3,3.8-.3,4.4v.9c0,.2.3.2.6.2h.2-.2c-.2,0-.7.2-.9.3-.2,0-.5.2-.7.3h-.2l.2-.2c.4-.2.4-.5.5-1.3,0-.5.2-2.1.4-4.8v-1.2h0c0,0,0,0,.2,0,.7.9,3.4,4.3,4.1,5.1.2.2.4.3.7.3h.2-.2c0,0,.2,0,.2,0Z"/>
        <path id="Tracciato_3866" class="st0" d="M44.6,81.9h-.9c-.6,0-2,.3-2.4.3s-.5,0-.6,0v-.2c-.2-.2,0-.5-.3-.7v-.2h0c.2.5.5.7.7.7.3,0,1.7-.2,2-.2,0,0,0,0,0-.4,0-.4-.2-1.7-.3-2.4v-.2l-1.3.2c-.5,0-.6,0-.7.2,0,0-.2.3-.2.4h0q0,0,0,0v-1.4l.2.2s0,.3.3.3c.7,0,1.3,0,2-.2v-.2c0-.5-.3-2-.3-2.2s-.2-.4-.3-.4h-1.1c-.9,0-1.1,0-1.3.4l-.3.6c0,0,0,.2-.2.2s0,0,0-.2c0-.3,0-.6,0-.8,0,0,0,0,.2,0,1.1,0,2.3-.2,3.2-.3.4,0,1-.2,1.1-.2h.2-.2c-.3,0-.6.4-.5.7h0c0,1.7.3,2.9.5,5,0,.6.2.7.6.8h.2,0l-.4.2Z"/>
        <path id="Tracciato_3867" class="st0" d="M34.7,81.9c-.4-.3-.6-.8-.6-1.3s.3-.9.7-1.2c.2,0,.4-.2.6-.3v-.2l-1-2c-.2-.4-.5-.7-.7-1-.2-.2-.5-.4-.8-.5h0,.6c.6,0,1.2.4,1.5.9.4.6,1.1,2,1.3,2.3,0,.2.2.3.4.3h.5c0-.2,0-1.5,0-1.9v-1c0,0,0-.3-.5-.3s-.2,0-.2,0,0,0,.2,0,.5,0,.9,0,.8,0,1,0h.2-.2c-.4,0-.5,0-.5.6s0,1.5-.2,2.8v2.5c0,.3,0,.5.4.6,0,0,.2,0,.2,0s0,0-.2,0h-2.1c-.5,0-1-.2-1.4-.5h-.1ZM36.9,82.2v-.2c0-.2.2-2.4.2-2.6v-.2h-.3c-.4,0-.8,0-1.1.2-.4.3-.6.7-.7,1.2,0,.4,0,.9.4,1.2.3.3.7.5,1.2.5h.3,0Z"/>
        <path id="Tracciato_3868" class="st0" d="M27.6,81h0c0-.3,0-.6.1-.8,0,0,0-.2.1-.2s0,0,0,.2c0,.3,0,.5.3.7.2.2.5.4.8.5.7,0,1.4-.3,1.5-1,0-.5,0-1-.5-1.4-.3-.4-.6-.7-.9-1-.5-.5-.7-1.2-.6-1.9.4-1.1,1.5-1.7,2.6-1.3h0c.5,0,.9.3,1.3.6,0,0,0,.2,0,.3v.8c0,0,0,.2,0,.2s0,0,0-.2c0-.7-.5-1.4-1.3-1.5-.7-.2-1.5.3-1.7,1h0c-.2.7.2,1.2.9,1.9.7.6,1.1,1.4,1,2.3-.1.5-.5,1-1,1.2s-1,.2-1.4,0c-.4,0-.8-.3-1.1-.5h0Z"/>
        <path id="Tracciato_3869" class="st0" d="M25.8,80.4c-.3,0-.5-.2-.8-.4-.3,0-.7-.2-.9-.3,0,0-.1,0-.1,0s0,0,.2,0c.4,0,.5,0,.7-.5s.6-1.7.9-2.3c.5-1.5.8-2.3.9-2.6.1-.4,0-.5-.2-.7-.1,0-.1,0-.1-.2s0,0,.2,0,.4.2.7.3c.5.2.8.2,1,.3,0,0,.1,0,.1,0h-.3c-.4,0-.5,0-.7.7-.2.6-1.2,3.4-1.4,3.8-.1.3-.2.6-.3,1,0,.3,0,.4.3.6h0c0,.2,0,0-.2,0h0v.2Z"/>
        <path id="Tracciato_3870" class="st0" d="M24.3,72.7c-.5-.2-.6,0-.9.4-.6.9-2.5,4.6-2.6,4.8h0c.2.2.5.4.7.5.3,0,.5.3.8.4.2,0,.4,0,.7-.3.1,0,.2,0,.2,0v.2c-.2.2-.4.5-.6.7,0,0,0,0-.1,0h0s-.1-.2-.3-.3c-.1,0-1.1-.6-2.1-1.1-.7-.4-1.6-.9-1.9-1-.2,0-.4-.2-.6-.2h0c.2-.3.3-.6.4-.8,0,0,.1-.2.2-.2s0,0,0,.2v.5c0,0,.1.2.8.6.3.2.8.4.9.5,0,0,.1,0,.1,0,.2-.4,1.4-2.5,1.6-2.9.3-.5.9-1.7,1-2s0-.5-.2-.7c-.1,0-.1,0-.1-.2s.1,0,.2,0c.2,0,.5.3.9.5.5.3.8.3,1,.4.1,0,.1,0,.1.2s-.1,0-.2,0h0v-.2Z"/>
        <path id="Tracciato_3871" class="st0" d="M14.6,74.4c.1-.3.2-.6.3-.9.6-2,1-3.5,1.4-5.1.2-.7.1-.8,0-1,0,0-.1-.2,0-.2h.2c.2,0,.3.3.7.6.3.2.7.5.9.6,0,0,.1,0,.1.2s-.1,0-.2,0c-.4-.2-.5,0-.7,0,0,.2-.4,1.1-.7,2.1v.2c.3.2,1.4,1.1,1.6,1.2h.3c.2,0,1-.6,1.4-.9.3-.3.5-.4.4-.6,0-.2-.1-.3-.2-.4v-.2h.2c.2,0,.5.4.8.7.2.2.4.2.6.4,0,0,.1,0,.1.2s-.1,0-.2,0c-.4-.2-.6-.2-1.5.3-.7.3-2.8,1.6-4.3,2.5,0,0-.2,0-.2.2h0c-.2,0-.5,0-.6.2h-.1c-.1,0,0,0,0,0h-.3ZM16.4,71.4c-.4,1.2-.6,1.9-.7,2.3h0c.6-.3,1.7-1,2.1-1.3h0c-.2,0-.4-.3-.7-.5-.2-.2-.5-.4-.8-.5h.1Z"/>
        <path id="Tracciato_3872" class="st0" d="M8.7,68.6h0c.2-.3.4-.5.5-.6,0,0,.2,0,.2,0v.2c-.2.2-.2.5-.2.7,0,.3.2.6.4.8.5.5,1.3.5,1.8,0,.4-.4.5-.9.4-1.4,0-.5-.1-.9-.2-1.3-.1-.7,0-1.4.6-1.9.9-.7,2.2-.5,2.9.4h0c.3.4.6.8.7,1.3v.3c-.2.2-.3.4-.5.6,0,0-.2,0-.2,0v-.2c.4-.6.3-1.4-.2-2s-1.4-.6-2,0h0c-.5.5-.5,1.1-.4,2.1.3.9,0,1.8-.5,2.5-.4.4-1,.5-1.5.4s-.9-.4-1.2-.7c-.3-.3-.5-.7-.7-1h0Z"/>
        <path id="Tracciato_3873" class="st0" d="M4.5,62.4c0,0-.3-.7-.5-1.1-.5-1-1-2-1.2-2.4v-.3c0,0,.5-.3.7-.4h.2s0,0,0,.2c-.3.3-.4.6-.2,1,0,.3.3.7.7,1.6h.2c.3,0,1.4-.6,2.5-1.2h0c-.5-1.1-.7-1.5-.8-1.7,0,0-.2-.3-.6-.2h-.2,0c0-.2.4-.2.6-.3.2,0,.3-.2.4-.3h.2s0,0,0,.2c0,0-.2.3-.2.4.2.6.4,1.2.7,1.7h.2c.2,0,1.7-.8,2.1-1s.4-.3.3-.8v-.2s.1,0,.2.2c0,0,.2.6.4,1s.3.6.4.7v.2h-.2c-.3-.4-.4-.4-.7-.3s-1.5.7-2.6,1.2c-1,.5-1.6.8-2.2,1.1-.3.2-.4.3-.3.6v.2h0c0,0,.1-.1.1-.1Z"/>
        <path id="Tracciato_3874" class="st0" d="M2.1,57.1c0-.3-.1-.7-.2-.9,0-.3-.2-.6-.3-.8v-.2s.1,0,.1,0c.2.4.3.4,1,.2.2,0,1.1-.3,2.1-.6s2-.6,2.2-.7c.3,0,.5-.2.8-.4,0-.2,0-.5,0-1.3,0-.3-.2-.6-.3-.9,0-.2-.4-.4-.9-.5,0,0-.2,0-.2,0s0,0,.3,0h.8s0,0,.2.2c0,0,.3.9.4,1.4s.3,1.3.4,1.6c0,.3.3.8.3.9v.2s-.1,0-.1-.2c-.2-.4-.4-.4-.7-.4s-1.1.3-2.5.7-2.1.6-2.5.7c-.6.2-.6.3-.6.7v.2h0c0,0-.2,0-.2,0Z"/>
        <path id="Tracciato_3875" class="st0" d="M3.3,44.1c1.3,0,2.6.5,3.3,1.7,1,1.7.4,3.8-1.3,4.8-.5.3-1,.4-1.6.5-1.1,0-2.2-.3-2.9-1.1-1.3-1.4-1.1-3.7.3-4.9.6-.5,1.3-.8,2.1-.9h0ZM1.1,49.5c.8.5,1.6.6,2.5.5.9,0,1.7-.5,2.3-1,.6-.5,1-1.3.9-2,0-.4-.2-.8-.5-1.1-.8-.7-1.9-1.1-2.9-.9-.9,0-1.8.5-2.5,1.1-.5.5-.8,1.2-.7,1.9,0,.6.4,1.2.9,1.5h0Z"/>
        <path id="Tracciato_3876" class="st0" d="M.8,38.6c.3-.4.9-.6,1.4-.5.5,0,.9.3,1.1.8,0,.2.2.4.3.6h.2c.4,0,1.5-.6,2-.9.4-.2.7-.4,1.1-.7.3-.2.5-.4.5-.7h0q0,0,0,0v.5c0,.6-.5,1.2-1.1,1.5-.7.4-2.1,1-2.4,1.2-.2,0-.3.2-.3.3v.4h0c0,0,1.4.3,1.8.3h1c0,0,.3,0,.4-.4q0,0,0,0c0,0,0,0,0,.2s0,.5-.2.9,0,.8,0,1v.2-.2c0-.4,0-.5-.5-.6-.6,0-1.4-.2-2.8-.4-1.5-.2-2.2-.2-2.5-.3-.3,0-.5,0-.6.4,0,0,0,.2,0,.2s0,0,0-.2,0-.5,0-.8c0-.4,0-.7,0-1.3,0-.5.2-1,.6-1.4h-.2ZM.4,40.8h.2c.2,0,2.4.3,2.6.4h.2v-1.5c-.2-.4-.6-.7-1.1-.7s-.9,0-1.3.3c-.3.3-.6.7-.6,1.2v.3h0Z"/>
        <path id="Tracciato_3877" class="st0" d="M1.3,34.8c0-.2.2-.6.3-.8.2-.5.6-1.9.7-2.3,0-.4,0-.5.2-.6h.2c.2,0,.5.1.7.2h0-.2c-.5,0-.7.2-.8.3,0,.2-.6,1.6-.7,1.9,0,0,0,0,.4.3.3,0,1.6.5,2.3.8h.2l.4-1.3c0-.5.2-.6,0-.7,0-.2-.2-.3-.3-.4h0q0,0,0,0c0,0,.4.2.5.2.2,0,.4,0,.6.2,0,0,.2,0,.2,0h-.3c0,0-.3,0-.4,0-.3.6-.5,1.2-.7,1.9h.2c.5.3,2,.7,2.1.8.2,0,.4,0,.5,0,.2-.3.4-.6.4-1,.3-.9.3-1,.2-1.3-.1-.2-.2-.4-.4-.5,0,0,0-.2,0-.2h.2c.2,0,.6.4.7.5v.2c-.4,1.1-.8,2.2-1,3,0,.3-.3.9-.3,1s0,.2,0,.2,0,0,0-.2c0-.3,0-.6-.4-.7h0c-1.6-.6-2.7-.9-4.7-1.6-.6-.2-.7,0-.9.2h-.1q0,0,0-.1h.2Z"/>
        <path id="Tracciato_3878" class="st0" d="M3.3,28.8c.2-.3.5-.7.7-1.1h.3c1.1-.3,5.2-1.1,6.6-1.5h0c-.3-.2-2.9-1.6-3.7-2.1-.6-.3-.8-.2-1,0,0,0,0,.1-.2.1s0-.1,0-.2c0-.2.3-.4.4-.6,0-.3.3-.5.3-.6s0-.1,0-.1v.2c0,.3,0,.6.3.7.3.2,2.3,1.4,3.2,1.9.8.5,1.4.8,1.9,1.1.2.1.3.2.2.3-.1,0-.3.1-.5.1-1,.2-5.1,1-7.2,1.4h0c.3.2,3.3,2,3.8,2.2.3.2.5.3.8.3s.4-.1.6-.3c0,0,.1-.1.2,0s0,.1,0,.2c0,.2-.3.4-.4.7s-.3.6-.3.7-.1,0-.1,0v-.2c0-.4,0-.6-.4-.9-.3-.2-3.3-2-4-2.4-.6-.3-.7-.3-.8-.2-.2,0-.3.2-.4.3,0,.1,0,.2-.2.1s0,0,0-.2h-.2Z"/>
        <path id="Tracciato_3879" class="st0" d="M13.9,24.5c.3-.4.2-.6-.1-1-.7-.8-3.9-3.6-4-3.7h-.1c-.2.2-.4.4-.6.6-.2.2-.4.5-.6.7-.1.2-.1.4.1.8v.2h-.1c-.2-.2-.4-.5-.6-.7,0,0,0-.1,0-.2h0c0,0,.2,0,.3-.2.1-.1.8-.9,1.6-1.7.6-.6,1.2-1.4,1.4-1.6.1-.1.3-.3.3-.5h.1c.2.2.4.4.6.6s.1.2.1.2h-.2c-.2-.1-.3-.2-.5-.2s-.3,0-.8.6c-.2.2-.6.6-.7.8v.2c.3.3,2.1,2,2.5,2.3.4.4,1.5,1.3,1.7,1.5.3.2.4.2.7,0,.1,0,.2-.1.2,0v.2c-.2.2-.4.4-.7.7-.4.4-.5.7-.6.8,0,.1-.2.1-.2,0v-.2h0l.2-.2Z"/>
        <path id="Tracciato_3880" class="st0" d="M12.9,16c.3-.2.5-.3.7-.6.3-.2.5-.5.7-.6h.2v.2c-.3.3-.2.5,0,.8.3.4,1.1,1.4,1.5,1.9,1,1.2,1.6,1.9,1.8,2.1.3.3.4.3.7.2h.2v.2c-.2.1-.5.3-.7.5-.4.3-.6.6-.8.7h-.2c-.1,0,0,0,.1-.2.3-.3.2-.5-.2-1-.4-.5-2.3-2.8-2.6-3.1-.2-.3-.4-.5-.7-.8-.3-.2-.4-.2-.7,0h-.1c0-.1.1-.3.1-.3Z"/>
        <path id="Tracciato_3881" class="st0" d="M15.8,13.6c.3-.2.8-.4,1.1-.6h.3c1.1.4,5,1.7,6.4,2.1h0c-.2-.3-1.7-2.9-2.2-3.7-.3-.6-.6-.5-.9-.4h-.2s0-.1.1-.2c.2,0,.5-.2.7-.3.3-.2.5-.3.6-.4s.2,0,.2,0c0,0,0,.1-.1.2-.2.2-.3.5,0,.8.2.4,1.3,2.3,1.8,3.2.5.8.8,1.4,1.1,1.8.1.2.1.3,0,.3-.2,0-.3,0-.5-.1-.9-.3-4.9-1.7-7-2.4h0c.2.3,1.9,3.4,2.2,3.8.1.3.3.5.6.7.2,0,.4.1.6,0h.2s0,.1-.1.2c-.2,0-.4.2-.7.4s-.6.4-.6.4h-.2s0-.1.1-.2c.3-.3.3-.4,0-1-.2-.4-1.8-3.3-2.2-4.1-.3-.5-.4-.6-.6-.6h-.8l.2-.2h0v.3Z"/>
        <path id="Tracciato_3882" class="st0" d="M26.6,8.3c.2.3.3.5.5.8,1.3,1.7,2.3,2.9,3.4,4.1.4.5.6.6.9.6h.2s0,.1-.2.1-.4,0-.9.3c-.4.1-.8.3-1,.4h-.2s0-.1.2-.1c.4-.2.4-.4.3-.6,0-.2-.7-1-1.4-1.8h-.2c-.4.1-1.7.6-1.9.6v1.9c0,.4,0,.6.2.7h.7s0,.1-.2.1-.6.1-1,.3c-.3,0-.4.2-.7.3h-.2s0-.1.2-.2c.4-.2.5-.4.6-1.3,0-.7.3-3.2.4-5v-.3h0c.1-.3.2-.5.2-.7h0q0-.1.1-.1h0ZM28.1,11.6c-.8-1-1.3-1.6-1.5-1.9h0c0,.7-.1,2-.1,2.4h0c.2,0,.4-.1.8-.3.3,0,.6-.2.9-.3h0c0-.1,0,.1,0,.1Z"/>
      </g>
    </g>
  </g>
</svg>